# xmcd
#
# Track frame offsets:
#	150
#	31452
#	49512
#	66110
#
# Disc length: 1032 seconds
#
# Revision: 1
# Processed by: cddbd v1.5.1PL0 Copyright (c) Steve Scherf et al.
# Submitted via: CDex 1.50Beta5
#
DISCID=2d040604
DTITLE=ラフィータフィー - 瀕死の双六問屋
DYEAR=1900
DGENRE=Rock
TTITLE0=瀕死の双六問屋のテーマ
TTITLE1=遠いシナリオ
TTITLE2=フリーター・ソング
TTITLE3=瀕死の双六問屋エンディングテーマ
EXTD=
EXTT0=
EXTT1=
EXTT2=
EXTT3=
PLAYORDER=
